<style>foreignObject div { overflow: visible !important; }</style><svg id="mermaid-1789857999373" width="100%" xmlns="http://www.w3.org/2000/svg" xmlns:xlink="http://www.w3.org/1999/xlink" class="flowchart" style="max-width: 3096.18359375px;" viewBox="0 0 3096.18359375 2156" role="graphics-document document" aria-roledescription="flowchart-v2"><style>#mermaid-1789857999373{font-size:18px;fill:#dce3e8;}@keyframes edge-animation-frame{from{stroke-dashoffset:0;}}@keyframes dash{to{stroke-dashoffset:0;}}#mermaid-1789857999373 .edge-animation-slow{stroke-dasharray:9,5!important;stroke-dashoffset:900;animation:dash 50s linear infinite;stroke-linecap:round;}#mermaid-1789857999373 .edge-animation-fast{stroke-dasharray:9,5!important;stroke-dashoffset:900;animation:dash 20s linear infinite;stroke-linecap:round;}#mermaid-1789857999373 .error-icon{fill:#0b1016;}#mermaid-1789857999373 .error-text{fill:#f4efe9;stroke:#f4efe9;}#mermaid-1789857999373 .edge-thickness-normal{stroke-width:1px;}#mermaid-1789857999373 .edge-thickness-thick{stroke-width:3.5px;}#mermaid-1789857999373 .edge-pattern-solid{stroke-dasharray:0;}#mermaid-1789857999373 .edge-thickness-invisible{stroke-width:0;fill:none;}#mermaid-1789857999373 .edge-pattern-dashed{stroke-dasharray:3;}#mermaid-1789857999373 .edge-pattern-dotted{stroke-dasharray:2;}#mermaid-1789857999373 .marker{fill:#9aa9b3;stroke:#9aa9b3;}#mermaid-1789857999373 .marker.cross{stroke:#9aa9b3;}#mermaid-1789857999373 svg{font-size:18px;}#mermaid-1789857999373 p{margin:0;}#mermaid-1789857999373 .label{color:#dce3e8;}#mermaid-1789857999373 .cluster-label text{fill:#c9962f;}#mermaid-1789857999373 .cluster-label span{color:#c9962f;}#mermaid-1789857999373 .cluster-label span p{background-color:transparent;}#mermaid-1789857999373 .label text,#mermaid-1789857999373 span{fill:#dce3e8;color:#dce3e8;}#mermaid-1789857999373 .node rect,#mermaid-1789857999373 .node circle,#mermaid-1789857999373 .node ellipse,#mermaid-1789857999373 .node polygon,#mermaid-1789857999373 .node path{fill:#18212b;stroke:#3a4a58;stroke-width:1px;}#mermaid-1789857999373 .rough-node .label text,#mermaid-1789857999373 .node .label text,#mermaid-1789857999373 .image-shape .label,#mermaid-1789857999373 .icon-shape .label{text-anchor:middle;}#mermaid-1789857999373 .node .katex path{fill:#000;stroke:#000;stroke-width:1px;}#mermaid-1789857999373 .rough-node .label,#mermaid-1789857999373 .node .label,#mermaid-1789857999373 .image-shape .label,#mermaid-1789857999373 .icon-shape .label{text-align:center;}#mermaid-1789857999373 .node.clickable{cursor:pointer;}#mermaid-1789857999373 .root .anchor path{fill:#9aa9b3!important;stroke-width:0;stroke:#9aa9b3;}#mermaid-1789857999373 .arrowheadPath{fill:#efe9e2;}#mermaid-1789857999373 .edgePath .path{stroke:#9aa9b3;stroke-width:2.0px;}#mermaid-1789857999373 .flowchart-link{stroke:#9aa9b3;fill:none;}#mermaid-1789857999373 .edgeLabel{background-color:#18212b;text-align:center;}#mermaid-1789857999373 .edgeLabel p{background-color:#18212b;}#mermaid-1789857999373 .edgeLabel rect{opacity:0.5;background-color:#18212b;fill:#18212b;}#mermaid-1789857999373 .labelBkg{background-color:rgba(24, 33, 43, 0.5);}#mermaid-1789857999373 .cluster rect{fill:#0b1016;stroke:#c9962f;stroke-width:1px;}#mermaid-1789857999373 .cluster text{fill:#c9962f;}#mermaid-1789857999373 .cluster span{color:#c9962f;}#mermaid-1789857999373 div.mermaidTooltip{position:absolute;text-align:center;max-width:200px;padding:2px;font-size:12px;background:#0b1016;border:1px solid hsl(212.7272727273, 0%, 0%);border-radius:2px;pointer-events:none;z-index:100;}#mermaid-1789857999373 .flowchartTitleText{text-anchor:middle;font-size:18px;fill:#dce3e8;}#mermaid-1789857999373 rect.text{fill:none;stroke-width:0;}#mermaid-1789857999373 .icon-shape,#mermaid-1789857999373 .image-shape{background-color:#18212b;text-align:center;}#mermaid-1789857999373 .icon-shape p,#mermaid-1789857999373 .image-shape p{background-color:#18212b;padding:2px;}#mermaid-1789857999373 .icon-shape .label rect,#mermaid-1789857999373 .image-shape .label rect{opacity:0.5;background-color:#18212b;fill:#18212b;}#mermaid-1789857999373 .label-icon{display:inline-block;height:1em;overflow:visible;vertical-align:-0.125em;}#mermaid-1789857999373 .node .label-icon path{fill:currentColor;stroke:revert;stroke-width:revert;}#mermaid-1789857999373 :root{--mermaid-font-family:"trebuchet ms",verdana,arial,sans-serif;}</style><g><marker id="mermaid-1789857999373_flowchart-v2-pointEnd" class="marker flowchart-v2" viewBox="0 0 10 10" refX="5" refY="5" markerUnits="userSpaceOnUse" markerWidth="8" markerHeight="8" orient="auto"><path d="M 0 0 L 10 5 L 0 10 z" class="arrowMarkerPath" style="stroke-width: 1; stroke-dasharray: 1, 0;"></path></marker><marker id="mermaid-1789857999373_flowchart-v2-pointStart" class="marker flowchart-v2" viewBox="0 0 10 10" refX="4.5" refY="5" markerUnits="userSpaceOnUse" markerWidth="8" markerHeight="8" orient="auto"><path d="M 0 5 L 10 10 L 10 0 z" class="arrowMarkerPath" style="stroke-width: 1; stroke-dasharray: 1, 0;"></path></marker><marker id="mermaid-1789857999373_flowchart-v2-circleEnd" class="marker flowchart-v2" viewBox="0 0 10 10" refX="11" refY="5" markerUnits="userSpaceOnUse" markerWidth="11" markerHeight="11" orient="auto"><circle cx="5" cy="5" r="5" class="arrowMarkerPath" style="stroke-width: 1; stroke-dasharray: 1, 0;"></circle></marker><marker id="mermaid-1789857999373_flowchart-v2-circleStart" class="marker flowchart-v2" viewBox="0 0 10 10" refX="-1" refY="5" markerUnits="userSpaceOnUse" markerWidth="11" markerHeight="11" orient="auto"><circle cx="5" cy="5" r="5" class="arrowMarkerPath" style="stroke-width: 1; stroke-dasharray: 1, 0;"></circle></marker><marker id="mermaid-1789857999373_flowchart-v2-crossEnd" class="marker cross flowchart-v2" viewBox="0 0 11 11" refX="12" refY="5.2" markerUnits="userSpaceOnUse" markerWidth="11" markerHeight="11" orient="auto"><path d="M 1,1 l 9,9 M 10,1 l -9,9" class="arrowMarkerPath" style="stroke-width: 2; stroke-dasharray: 1, 0;"></path></marker><marker id="mermaid-1789857999373_flowchart-v2-crossStart" class="marker cross flowchart-v2" viewBox="0 0 11 11" refX="-1" refY="5.2" markerUnits="userSpaceOnUse" markerWidth="11" markerHeight="11" orient="auto"><path d="M 1,1 l 9,9 M 10,1 l -9,9" class="arrowMarkerPath" style="stroke-width: 2; stroke-dasharray: 1, 0;"></path></marker><g class="root"><g class="clusters"><g class="cluster " id="PM" data-look="classic"><rect style="" x="2340.421875" y="1504" width="460.5" height="269"></rect><g class="cluster-label " transform="translate(2344.421875, 1504)"><foreignObject width="452.5" height="47"><div xmlns="http://www.w3.org/1999/xhtml" style="display: table-cell; white-space: nowrap; line-height: 1.5;"><span class="nodeLabel "><p>PROJECT MANAGEMENT  (carried by state, not a head)</p></span></div></foreignObject></g></g><g class="cluster " id="SEC" data-look="classic"><rect style="" x="1474.13671875" y="354" width="549.0234375" height="644"></rect><g class="cluster-label " transform="translate(1623.7734375, 354)"><foreignObject width="249.75" height="47"><div xmlns="http://www.w3.org/1999/xhtml" style="display: table-cell; white-space: nowrap; line-height: 1.5;"><span class="nodeLabel "><p>SECURITY and COMPLIANCE</p></span></div></foreignObject></g></g><g class="cluster " id="QUALITY" data-look="classic"><rect style="" x="1735.66015625" y="1504" width="565" height="269"></rect><g class="cluster-label " transform="translate(1979.64453125, 1504)"><foreignObject width="77.03125" height="47"><div xmlns="http://www.w3.org/1999/xhtml" style="display: table-cell; white-space: nowrap; line-height: 1.5;"><span class="nodeLabel "><p>QUALITY</p></span></div></foreignObject></g></g><g class="cluster " id="ENG" data-look="classic"><rect style="" x="2043.16015625" y="675" width="340" height="725"></rect><g class="cluster-label " transform="translate(2150.14453125, 675)"><foreignObject width="126.03125" height="47"><div xmlns="http://www.w3.org/1999/xhtml" style="display: table-cell; white-space: nowrap; line-height: 1.5;"><span class="nodeLabel "><p>ENGINEERING</p></span></div></foreignObject></g></g><g class="cluster " id="ANALYSIS" data-look="classic"><rect style="" x="2758.18359375" y="675" width="330" height="323"></rect><g class="cluster-label " transform="translate(2879.82421875, 675)"><foreignObject width="86.71875" height="47"><div xmlns="http://www.w3.org/1999/xhtml" style="display: table-cell; white-space: nowrap; line-height: 1.5;"><span class="nodeLabel "><p>ANALYSIS</p></span></div></foreignObject></g></g><g class="cluster " id="DESIGN" data-look="classic"><rect style="" x="2403.16015625" y="8" width="335.0234375" height="1392"></rect><g class="cluster-label " transform="translate(2445.640625, 8)"><foreignObject width="250.0625" height="47"><div xmlns="http://www.w3.org/1999/xhtml" style="display: table-cell; white-space: nowrap; line-height: 1.5;"><span class="nodeLabel "><p>ARCHITECTURE and DESIGN</p></span></div></foreignObject></g></g><g class="cluster " id="MGMT" data-look="classic"><rect style="" x="8" y="354" width="1446.13671875" height="1794"></rect><g class="cluster-label " transform="translate(601.052734375, 354)"><foreignObject width="260.03125" height="47"><div xmlns="http://www.w3.org/1999/xhtml" style="display: table-cell; white-space: nowrap; line-height: 1.5;"><span class="nodeLabel "><p>ENGINEERING MANAGEMENT</p></span></div></foreignObject></g></g><g class="cluster " id="SPONSOR" data-look="classic"><rect style="" x="462.25" y="8" width="1488.41015625" height="242"></rect><g class="cluster-label " transform="translate(955.041015625, 8)"><foreignObject width="502.828125" height="47"><div xmlns="http://www.w3.org/1999/xhtml" style="display: table-cell; white-space: nowrap; line-height: 1.5;"><span class="nodeLabel "><p>PRODUCT OWNER / SPONSOR  (the human driving engineer)</p></span></div></foreignObject></g></g></g><g class="edgePaths"><path d="M1392.613,155.054L1313.657,170.879C1234.701,186.703,1076.788,218.351,997.831,242.842C918.875,267.333,918.875,284.667,918.875,302C918.875,319.333,918.875,336.667,888.152,357.021C857.43,377.375,795.985,400.749,765.262,412.437L734.539,424.124" id="L_PO_EM_0" class=" edge-thickness-normal edge-pattern-solid edge-thickness-normal edge-pattern-solid flowchart-link" style=";" data-edge="true" data-et="edge" data-id="L_PO_EM_0" data-points="W3sieCI6MTM5Mi42MTMyODEyNSwieSI6MTU1LjA1NDMzNTk0MDc4NTZ9LHsieCI6OTE4Ljg3NSwieSI6MjUwfSx7IngiOjkxOC44NzUsInkiOjMwMn0seyJ4Ijo5MTguODc1LCJ5IjozNTR9LHsieCI6NzMwLjgwMDc4MTI1LCJ5Ijo0MjUuNTQ2MTMzMzQ2NDMzfV0=" marker-end="url(#mermaid-1789857999373_flowchart-v2-pointEnd)"></path><path d="M522.612,379L519.218,374.833C515.824,370.667,509.037,362.333,505.644,349.5C502.25,336.667,502.25,319.333,502.25,302C502.25,284.667,502.25,267.333,649.982,241.148C797.714,214.962,1093.177,179.925,1240.909,162.406L1388.641,144.887" id="L_EM_PO_0" class=" edge-thickness-normal edge-pattern-solid edge-thickness-normal edge-pattern-solid flowchart-link" style=";" data-edge="true" data-et="edge" data-id="L_EM_PO_0" data-points="W3sieCI6NTIyLjYxMTczMTY2MzIyMzIsInkiOjM3OX0seyJ4Ijo1MDIuMjUsInkiOjM1NH0seyJ4Ijo1MDIuMjUsInkiOjMwMn0seyJ4Ijo1MDIuMjUsInkiOjI1MH0seyJ4IjoxMzkyLjYxMzI4MTI1LCJ5IjoxNDQuNDE2MDc4MDY2NTU4N31d" marker-end="url(#mermaid-1789857999373_flowchart-v2-pointEnd)"></path><path d="M522.963,571L515.936,579.667C508.909,588.333,494.855,605.667,487.828,623C480.801,640.333,480.801,657.667,480.801,693.25C480.801,728.833,480.801,782.667,480.801,836.5C480.801,890.333,480.801,944.167,480.801,979.75C480.801,1015.333,480.801,1032.667,807.201,1070.738C1133.6,1108.81,1786.4,1167.62,2112.8,1197.025L2439.2,1226.43" id="L_EM_SA_0" class=" edge-thickness-normal edge-pattern-solid edge-thickness-normal edge-pattern-solid flowchart-link" style=";" data-edge="true" data-et="edge" data-id="L_EM_SA_0" data-points="W3sieCI6NTIyLjk2Mjk0MzQxMjE2MjIsInkiOjU3MX0seyJ4Ijo0ODAuODAwNzgxMjUsInkiOjYyM30seyJ4Ijo0ODAuODAwNzgxMjUsInkiOjY3NX0seyJ4Ijo0ODAuODAwNzgxMjUsInkiOjgzNi41fSx7IngiOjQ4MC44MDA3ODEyNSwieSI6OTk4fSx7IngiOjQ4MC44MDA3ODEyNSwieSI6MTA1MH0seyJ4IjoyNDQzLjE4MzU5Mzc1LCJ5IjoxMjI2Ljc4ODQ3MTk0OTk2NzN9XQ==" marker-end="url(#mermaid-1789857999373_flowchart-v2-pointEnd)"></path><path d="M2634.461,1375L2636.331,1379.167C2638.202,1383.333,2641.943,1391.667,2643.813,1404.5C2645.684,1417.333,2645.684,1434.667,2645.684,1452C2645.684,1469.333,2645.684,1486.667,2643.754,1498.913C2641.824,1511.16,2637.965,1518.319,2636.035,1521.899L2634.106,1525.479" id="L_SA_BOARD_0" class=" edge-thickness-normal edge-pattern-solid edge-thickness-normal edge-pattern-solid flowchart-link" style=";" data-edge="true" data-et="edge" data-id="L_SA_BOARD_0" data-points="W3sieCI6MjYzNC40NjA2ODM1MzMyODE2LCJ5IjoxMzc1fSx7IngiOjI2NDUuNjgzNTkzNzUsInkiOjE0MDB9LHsieCI6MjY0NS42ODM1OTM3NSwieSI6MTQ1Mn0seyJ4IjoyNjQ1LjY4MzU5Mzc1LCJ5IjoxNTA0fSx7IngiOjI2MzIuMjA3NzU3MzE4NzczLCJ5IjoxNTI5fV0=" marker-end="url(#mermaid-1789857999373_flowchart-v2-pointEnd)"></path><path d="M730.801,508.98L803.504,527.983C876.207,546.987,1021.613,584.993,1094.316,612.663C1167.02,640.333,1167.02,657.667,1319.884,689.82C1472.749,721.973,1778.478,768.946,1931.342,792.433L2084.207,815.919" id="L_EM_DEV_0" class=" edge-thickness-normal edge-pattern-solid edge-thickness-normal edge-pattern-solid flowchart-link" style=";" data-edge="true" data-et="edge" data-id="L_EM_DEV_0" data-points="W3sieCI6NzMwLjgwMDc4MTI1LCJ5Ijo1MDguOTc5ODAwMjA5NzI0Nn0seyJ4IjoxMTY3LjAxOTUzMTI1LCJ5Ijo2MjN9LHsieCI6MTE2Ny4wMTk1MzEyNSwieSI6Njc1fSx7IngiOjIwODguMTYwMTU2MjUsInkiOjgxNi41MjY0NTkzNTIxOTE5fV0=" marker-end="url(#mermaid-1789857999373_flowchart-v2-pointEnd)"></path><path d="M2088.16,819.68L1901.794,795.566C1715.428,771.453,1342.697,723.227,1156.331,690.447C969.965,657.667,969.965,640.333,930.723,615.934C891.481,591.535,812.997,560.071,773.755,544.339L734.514,528.606" id="L_DEV_EM_0" class=" edge-thickness-normal edge-pattern-solid edge-thickness-normal edge-pattern-solid flowchart-link" style=";" data-edge="true" data-et="edge" data-id="L_DEV_EM_0" data-points="W3sieCI6MjA4OC4xNjAxNTYyNSwieSI6ODE5LjY3OTcxNTcxNDU2Mjl9LHsieCI6OTY5Ljk2NDg0Mzc1LCJ5Ijo2NzV9LHsieCI6OTY5Ljk2NDg0Mzc1LCJ5Ijo2MjN9LHsieCI6NzMwLjgwMDc4MTI1LCJ5Ijo1MjcuMTE3NzQ5MTM3NjIwOX1d" marker-end="url(#mermaid-1789857999373_flowchart-v2-pointEnd)"></path><path d="M730.801,500.559L834.595,520.966C938.389,541.373,1145.978,582.186,1249.772,611.26C1353.566,640.333,1353.566,657.667,1592.839,690.952C1832.112,724.238,2310.659,773.476,2549.932,798.096L2789.205,822.715" id="L_EM_BA_0" class=" edge-thickness-normal edge-pattern-solid edge-thickness-normal edge-pattern-solid flowchart-link" style=";" data-edge="true" data-et="edge" data-id="L_EM_BA_0" data-points="W3sieCI6NzMwLjgwMDc4MTI1LCJ5Ijo1MDAuNTU5MDg0MjEwMzA3ODR9LHsieCI6MTM1My41NjY0MDYyNSwieSI6NjIzfSx7IngiOjEzNTMuNTY2NDA2MjUsInkiOjY3NX0seyJ4IjoyNzkzLjE4MzU5Mzc1LCJ5Ijo4MjMuMTI0MTI3MTAxMDU0N31d" marker-end="url(#mermaid-1789857999373_flowchart-v2-pointEnd)"></path><path d="M2923.184,959.5L2923.184,965.917C2923.184,972.333,2923.184,985.167,2864.85,1000.25C2806.517,1015.333,2689.85,1032.667,2631.517,1049.333C2573.184,1066,2573.184,1082,2573.184,1090L2573.184,1098" id="L_BA_SA_0" class=" edge-thickness-normal edge-pattern-solid edge-thickness-normal edge-pattern-solid flowchart-link" style=";" data-edge="true" data-et="edge" data-id="L_BA_SA_0" data-points="W3sieCI6MjkyMy4xODM1OTM3NSwieSI6OTU5LjV9LHsieCI6MjkyMy4xODM1OTM3NSwieSI6OTk4fSx7IngiOjI1NzMuMTgzNTkzNzUsInkiOjEwNTB9LHsieCI6MjU3My4xODM1OTM3NSwieSI6MTEwMn1d" marker-end="url(#mermaid-1789857999373_flowchart-v2-pointEnd)"></path><path d="M2516.113,1375L2514.371,1379.167C2512.629,1383.333,2509.144,1391.667,2507.402,1404.5C2505.66,1417.333,2505.66,1434.667,2505.66,1452C2505.66,1469.333,2505.66,1486.667,2507.453,1498.904C2509.246,1511.142,2512.831,1518.283,2514.624,1521.854L2516.416,1525.425" id="L_SA_BOARD_2" class=" edge-thickness-normal edge-pattern-solid edge-thickness-normal edge-pattern-solid flowchart-link" style=";" data-edge="true" data-et="edge" data-id="L_SA_BOARD_2" data-points="W3sieCI6MjUxNi4xMTI3MDA3NTQ2NDQsInkiOjEzNzV9LHsieCI6MjUwNS42NjAxNTYyNSwieSI6MTQwMH0seyJ4IjoyNTA1LjY2MDE1NjI1LCJ5IjoxNDUyfSx7IngiOjI1MDUuNjYwMTU2MjUsInkiOjE1MDR9LHsieCI6MjUxOC4yMTA5ODEwNjQxMjY0LCJ5IjoxNTI5fV0=" marker-end="url(#mermaid-1789857999373_flowchart-v2-pointEnd)"></path><path d="M2568.16,225L2568.16,229.167C2568.16,233.333,2568.16,241.667,2568.16,254.5C2568.16,267.333,2568.16,284.667,2568.16,302C2568.16,319.333,2568.16,336.667,2262.599,364.126C1957.038,391.586,1345.916,429.173,1040.354,447.966L734.793,466.759" id="L_GOV_EM_0" class=" edge-thickness-normal edge-pattern-dotted edge-thickness-normal edge-pattern-solid flowchart-link" style=";" data-edge="true" data-et="edge" data-id="L_GOV_EM_0" data-points="W3sieCI6MjU2OC4xNjAxNTYyNSwieSI6MjI1fSx7IngiOjI1NjguMTYwMTU2MjUsInkiOjI1MH0seyJ4IjoyNTY4LjE2MDE1NjI1LCJ5IjozMDJ9LHsieCI6MjU2OC4xNjAxNTYyNSwieSI6MzU0fSx7IngiOjczMC44MDA3ODEyNSwieSI6NDY3LjAwNDUxMTEyMjkzNjA0fV0=" marker-end="url(#mermaid-1789857999373_flowchart-v2-pointEnd)"></path><path d="M727.971,571L739.452,579.667C750.933,588.333,773.894,605.667,785.375,623C796.855,640.333,796.855,657.667,914.914,688.97C1032.973,720.273,1269.091,765.547,1387.149,788.184L1505.208,810.82" id="L_EM_WARD_0" class=" edge-thickness-normal edge-pattern-solid edge-thickness-normal edge-pattern-solid flowchart-link" style=";" data-edge="true" data-et="edge" data-id="L_EM_WARD_0" data-points="W3sieCI6NzI3Ljk3MTM4OTM1ODEwODEsInkiOjU3MX0seyJ4Ijo3OTYuODU1NDY4NzUsInkiOjYyM30seyJ4Ijo3OTYuODU1NDY4NzUsInkiOjY3NX0seyJ4IjoxNTA5LjEzNjcxODc1LCJ5Ijo4MTEuNTczNjQ2NzE4MzYxNn1d" marker-end="url(#mermaid-1789857999373_flowchart-v2-pointEnd)"></path><path d="M1509.137,816.28L1357.747,792.733C1206.358,769.187,903.579,722.093,752.19,689.88C600.801,657.667,600.801,640.333,600.801,623.667C600.801,607,600.801,591,600.801,583L600.801,575" id="L_WARD_EM_0" class=" edge-thickness-normal edge-pattern-solid edge-thickness-normal edge-pattern-solid flowchart-link" style=";" data-edge="true" data-et="edge" data-id="L_WARD_EM_0" data-points="W3sieCI6MTUwOS4xMzY3MTg3NSwieSI6ODE2LjI4MDE0NzAyMDA5Njd9LHsieCI6NjAwLjgwMDc4MTI1LCJ5Ijo2NzV9LHsieCI6NjAwLjgwMDc4MTI1LCJ5Ijo2MjN9LHsieCI6NjAwLjgwMDc4MTI1LCJ5Ijo1NzF9XQ==" marker-end="url(#mermaid-1789857999373_flowchart-v2-pointEnd)"></path><path d="M1627.284,700L1626.922,695.833C1626.56,691.667,1625.837,683.333,1625.475,670.5C1625.113,657.667,1625.113,640.333,1625.113,607C1625.113,573.667,1625.113,524.333,1625.113,479.5C1625.113,434.667,1625.113,394.333,1625.113,365.5C1625.113,336.667,1625.113,319.333,1625.113,302C1625.113,284.667,1625.113,267.333,1620.109,252.759C1615.104,238.184,1605.095,226.368,1600.09,220.46L1595.085,214.552" id="L_WARD_PO_0" class=" edge-thickness-normal edge-pattern-dotted edge-thickness-normal edge-pattern-solid flowchart-link" style=";" data-edge="true" data-et="edge" data-id="L_WARD_PO_0" data-points="W3sieCI6MTYyNy4yODQwOTIwMDg1MTM5LCJ5Ijo3MDB9LHsieCI6MTYyNS4xMTMyODEyNSwieSI6Njc1fSx7IngiOjE2MjUuMTEzMjgxMjUsInkiOjYyM30seyJ4IjoxNjI1LjExMzI4MTI1LCJ5Ijo0NzV9LHsieCI6MTYyNS4xMTMyODEyNSwieSI6MzU0fSx7IngiOjE2MjUuMTEzMjgxMjUsInkiOjMwMn0seyJ4IjoxNjI1LjExMzI4MTI1LCJ5IjoyNTB9LHsieCI6MTU5Mi40OTk2NDQ4ODYzNjM3LCJ5IjoyMTEuNX1d" marker-end="url(#mermaid-1789857999373_flowchart-v2-pointEnd)"></path><path d="M2218.16,932.5L2218.16,943.417C2218.16,954.333,2218.16,976.167,2218.16,995.75C2218.16,1015.333,2218.16,1032.667,2217.258,1058.334C2216.356,1084.002,2214.553,1118.004,2213.651,1135.005L2212.749,1152.006" id="L_DEV_REL_0" class=" edge-thickness-normal edge-pattern-solid edge-thickness-normal edge-pattern-solid flowchart-link" style=";" data-edge="true" data-et="edge" data-id="L_DEV_REL_0" data-points="W3sieCI6MjIxOC4xNjAxNTYyNSwieSI6OTMyLjV9LHsieCI6MjIxOC4xNjAxNTYyNSwieSI6OTk4fSx7IngiOjIyMTguMTYwMTU2MjUsInkiOjEwNTB9LHsieCI6MjIxMi41MzY4MTQwNzQ5MzQsInkiOjExNTZ9XQ==" marker-end="url(#mermaid-1789857999373_flowchart-v2-pointEnd)"></path><path d="M2208.16,1321L2208.16,1334.167C2208.16,1347.333,2208.16,1373.667,2208.16,1395.5C2208.16,1417.333,2208.16,1434.667,2208.16,1452C2208.16,1469.333,2208.16,1486.667,2186.692,1506.339C2165.224,1526.011,2122.288,1548.021,2100.82,1559.027L2079.352,1570.032" id="L_REL_QA_0" class=" edge-thickness-normal edge-pattern-solid edge-thickness-normal edge-pattern-solid flowchart-link" style=";" data-edge="true" data-et="edge" data-id="L_REL_QA_0" data-points="W3sieCI6MjIwOC4xNjAxNTYyNSwieSI6MTMyMX0seyJ4IjoyMjA4LjE2MDE1NjI1LCJ5IjoxNDAwfSx7IngiOjIyMDguMTYwMTU2MjUsInkiOjE0NTJ9LHsieCI6MjIwOC4xNjAxNTYyNSwieSI6MTUwNH0seyJ4IjoyMDc1Ljc5Mjk2ODc1LCJ5IjoxNTcxLjg1Njc1Nzg4MzQ1M31d" marker-end="url(#mermaid-1789857999373_flowchart-v2-pointEnd)"></path><path d="M1815.793,1628.258L1552.941,1607.548C1290.09,1586.838,764.387,1545.419,501.535,1516.043C238.684,1486.667,238.684,1469.333,238.684,1452C238.684,1434.667,238.684,1417.333,238.684,1381.75C238.684,1346.167,238.684,1292.333,238.684,1234C238.684,1175.667,238.684,1112.833,238.684,1072.75C238.684,1032.667,238.684,1015.333,238.684,979.75C238.684,944.167,238.684,890.333,238.684,836.5C238.684,782.667,238.684,728.833,238.684,693.25C238.684,657.667,238.684,640.333,276.753,616.108C314.822,591.882,390.96,560.764,429.029,545.204L467.098,529.645" id="L_QA_EM_0" class=" edge-thickness-normal edge-pattern-solid edge-thickness-normal edge-pattern-solid flowchart-link" style=";" data-edge="true" data-et="edge" data-id="L_QA_EM_0" data-points="W3sieCI6MTgxNS43OTI5Njg3NSwieSI6MTYyOC4yNTc1Mzk3MDA3MDAxfSx7IngiOjIzOC42ODM1OTM3NSwieSI6MTUwNH0seyJ4IjoyMzguNjgzNTkzNzUsInkiOjE0NTJ9LHsieCI6MjM4LjY4MzU5Mzc1LCJ5IjoxNDAwfSx7IngiOjIzOC42ODM1OTM3NSwieSI6MTIzOC41fSx7IngiOjIzOC42ODM1OTM3NSwieSI6MTA1MH0seyJ4IjoyMzguNjgzNTkzNzUsInkiOjk5OH0seyJ4IjoyMzguNjgzNTkzNzUsInkiOjgzNi41fSx7IngiOjIzOC42ODM1OTM3NSwieSI6Njc1fSx7IngiOjIzOC42ODM1OTM3NSwieSI6NjIzfSx7IngiOjQ3MC44MDA3ODEyNSwieSI6NTI4LjEzMTk3MTI2Mjc1NTl9XQ==" marker-end="url(#mermaid-1789857999373_flowchart-v2-pointEnd)"></path><path d="M470.801,565.631L457.086,575.193C443.371,584.754,415.941,603.877,402.227,622.105C388.512,640.333,388.512,657.667,388.512,693.25C388.512,728.833,388.512,782.667,388.512,836.5C388.512,890.333,388.512,944.167,388.512,979.75C388.512,1015.333,388.512,1032.667,388.512,1072.75C388.512,1112.833,388.512,1175.667,388.512,1234C388.512,1292.333,388.512,1346.167,388.512,1381.75C388.512,1417.333,388.512,1434.667,388.512,1452C388.512,1469.333,388.512,1486.667,730.292,1516.375C1072.072,1546.084,1755.631,1588.167,2097.411,1609.209L2439.191,1630.251" id="L_EM_BOARD_0" class=" edge-thickness-normal edge-pattern-solid edge-thickness-normal edge-pattern-solid flowchart-link" style=";" data-edge="true" data-et="edge" data-id="L_EM_BOARD_0" data-points="W3sieCI6NDcwLjgwMDc4MTI1LCJ5Ijo1NjUuNjMxMTQxMjA2MzQ0NX0seyJ4IjozODguNTExNzE4NzUsInkiOjYyM30seyJ4IjozODguNTExNzE4NzUsInkiOjY3NX0seyJ4IjozODguNTExNzE4NzUsInkiOjgzNi41fSx7IngiOjM4OC41MTE3MTg3NSwieSI6OTk4fSx7IngiOjM4OC41MTE3MTg3NSwieSI6MTA1MH0seyJ4IjozODguNTExNzE4NzUsInkiOjEyMzguNX0seyJ4IjozODguNTExNzE4NzUsInkiOjE0MDB9LHsieCI6Mzg4LjUxMTcxODc1LCJ5IjoxNDUyfSx7IngiOjM4OC41MTE3MTg3NSwieSI6MTUwNH0seyJ4IjoyNDQzLjE4MzU5Mzc1LCJ5IjoxNjMwLjQ5NjUwOTc3MzM0OTh9XQ==" marker-end="url(#mermaid-1789857999373_flowchart-v2-pointEnd)"></path><path d="M149.854,1850L148.194,1843.583C146.534,1837.167,143.214,1824.333,141.554,1811.5C139.895,1798.667,139.895,1785.833,139.895,1757C139.895,1728.167,139.895,1683.333,139.895,1638.5C139.895,1593.667,139.895,1548.833,139.895,1517.75C139.895,1486.667,139.895,1469.333,139.895,1452C139.895,1434.667,139.895,1417.333,139.895,1381.75C139.895,1346.167,139.895,1292.333,139.895,1234C139.895,1175.667,139.895,1112.833,139.895,1072.75C139.895,1032.667,139.895,1015.333,139.895,979.75C139.895,944.167,139.895,890.333,139.895,836.5C139.895,782.667,139.895,728.833,139.895,693.25C139.895,657.667,139.895,640.333,194.411,614.161C248.927,587.989,357.96,552.978,412.476,535.472L466.992,517.967" id="L_PMO_EM_0" class=" edge-thickness-normal edge-pattern-dotted edge-thickness-normal edge-pattern-solid flowchart-link" style=";" data-edge="true" data-et="edge" data-id="L_PMO_EM_0" data-points="W3sieCI6MTQ5Ljg1MzgyODEyNSwieSI6MTg1MH0seyJ4IjoxMzkuODk0NTMxMjUsInkiOjE4MTEuNX0seyJ4IjoxMzkuODk0NTMxMjUsInkiOjE3NzN9LHsieCI6MTM5Ljg5NDUzMTI1LCJ5IjoxNjM4LjV9LHsieCI6MTM5Ljg5NDUzMTI1LCJ5IjoxNTA0fSx7IngiOjEzOS44OTQ1MzEyNSwieSI6MTQ1Mn0seyJ4IjoxMzkuODk0NTMxMjUsInkiOjE0MDB9LHsieCI6MTM5Ljg5NDUzMTI1LCJ5IjoxMjM4LjV9LHsieCI6MTM5Ljg5NDUzMTI1LCJ5IjoxMDUwfSx7IngiOjEzOS44OTQ1MzEyNSwieSI6OTk4fSx7IngiOjEzOS44OTQ1MzEyNSwieSI6ODM2LjV9LHsieCI6MTM5Ljg5NDUzMTI1LCJ5Ijo2NzV9LHsieCI6MTM5Ljg5NDUzMTI1LCJ5Ijo2MjN9LHsieCI6NDcwLjgwMDc4MTI1LCJ5Ijo1MTYuNzQzODQ3MDQwNDc3NH1d" marker-end="url(#mermaid-1789857999373_flowchart-v2-pointEnd)"></path><path d="M2573.184,1748L2573.184,1752.167C2573.184,1756.333,2573.184,1764.667,2275.987,1775.25C1978.79,1785.833,1384.397,1798.667,1008.701,1827.796C633.005,1856.925,476.006,1902.35,397.506,1925.063L319.006,1947.775" id="L_BOARD_PMO_0" class=" edge-thickness-normal edge-pattern-dotted edge-thickness-normal edge-pattern-solid flowchart-link" style=";" data-edge="true" data-et="edge" data-id="L_BOARD_PMO_0" data-points="W3sieCI6MjU3My4xODM1OTM3NSwieSI6MTc0OH0seyJ4IjoyNTczLjE4MzU5Mzc1LCJ5IjoxNzczfSx7IngiOjc5MC4wMDM5MDYyNSwieSI6MTgxMS41fSx7IngiOjMxNS4xNjQwNjI1LCJ5IjoxOTQ4Ljg4NjczNzE5MTUzNDR9XQ==" marker-end="url(#mermaid-1789857999373_flowchart-v2-pointEnd)"></path><path d="M1845.187,571L1844.016,579.667C1842.845,588.333,1840.502,605.667,1839.331,623C1838.16,640.333,1838.16,657.667,1838.16,693.25C1838.16,728.833,1838.16,782.667,1838.16,836.5C1838.16,890.333,1838.16,944.167,1838.16,979.75C1838.16,1015.333,1838.16,1032.667,1838.16,1072.75C1838.16,1112.833,1838.16,1175.667,1838.16,1234C1838.16,1292.333,1838.16,1346.167,1838.16,1381.75C1838.16,1417.333,1838.16,1434.667,1838.16,1452C1838.16,1469.333,1838.16,1486.667,1842.879,1501.229C1847.597,1515.792,1857.034,1527.585,1861.752,1533.481L1866.47,1539.377" id="L_SECN_QA_0" class=" edge-thickness-normal edge-pattern-dotted edge-thickness-normal edge-pattern-solid flowchart-link" style=";" data-edge="true" data-et="edge" data-id="L_SECN_QA_0" data-points="W3sieCI6MTg0NS4xODcxODMyNzcwMjcsInkiOjU3MX0seyJ4IjoxODM4LjE2MDE1NjI1LCJ5Ijo2MjN9LHsieCI6MTgzOC4xNjAxNTYyNSwieSI6Njc1fSx7IngiOjE4MzguMTYwMTU2MjUsInkiOjgzNi41fSx7IngiOjE4MzguMTYwMTU2MjUsInkiOjk5OH0seyJ4IjoxODM4LjE2MDE1NjI1LCJ5IjoxMDUwfSx7IngiOjE4MzguMTYwMTU2MjUsInkiOjEyMzguNX0seyJ4IjoxODM4LjE2MDE1NjI1LCJ5IjoxNDAwfSx7IngiOjE4MzguMTYwMTU2MjUsInkiOjE0NTJ9LHsieCI6MTgzOC4xNjAxNTYyNSwieSI6MTUwNH0seyJ4IjoxODY4Ljk2OTU0ODY3NTY1MDUsInkiOjE1NDIuNX1d" marker-end="url(#mermaid-1789857999373_flowchart-v2-pointEnd)"></path><path d="M1911.674,571L1916.505,579.667C1921.336,588.333,1930.998,605.667,1935.829,623C1940.66,640.333,1940.66,657.667,2082.09,689.58C2223.519,721.494,2506.378,767.989,2647.807,791.236L2789.237,814.483" id="L_SECN_BA_0" class=" edge-thickness-normal edge-pattern-dotted edge-thickness-normal edge-pattern-solid flowchart-link" style=";" data-edge="true" data-et="edge" data-id="L_SECN_BA_0" data-points="W3sieCI6MTkxMS42NzM2Njk3NjM1MTM1LCJ5Ijo1NzF9LHsieCI6MTk0MC42NjAxNTYyNSwieSI6NjIzfSx7IngiOjE5NDAuNjYwMTU2MjUsInkiOjY3NX0seyJ4IjoyNzkzLjE4MzU5Mzc1LCJ5Ijo4MTUuMTMxNTUzMDAwNDg1fV0=" marker-end="url(#mermaid-1789857999373_flowchart-v2-pointEnd)"></path><path d="M1858.16,571L1858.16,579.667C1858.16,588.333,1858.16,605.667,1858.16,623C1858.16,640.333,1858.16,657.667,1858.16,693.25C1858.16,728.833,1858.16,782.667,1858.16,836.5C1858.16,890.333,1858.16,944.167,1904.41,979.75C1950.66,1015.333,2043.16,1032.667,2095.966,1058.378C2148.771,1084.089,2161.882,1118.178,2168.438,1135.222L2174.993,1152.267" id="L_SECN_REL_0" class=" edge-thickness-normal edge-pattern-dotted edge-thickness-normal edge-pattern-solid flowchart-link" style=";" data-edge="true" data-et="edge" data-id="L_SECN_REL_0" data-points="W3sieCI6MTg1OC4xNjAxNTYyNSwieSI6NTcxfSx7IngiOjE4NTguMTYwMTU2MjUsInkiOjYyM30seyJ4IjoxODU4LjE2MDE1NjI1LCJ5Ijo2NzV9LHsieCI6MTg1OC4xNjAxNTYyNSwieSI6ODM2LjV9LHsieCI6MTg1OC4xNjAxNTYyNSwieSI6OTk4fSx7IngiOjIxMzUuNjYwMTU2MjUsInkiOjEwNTB9LHsieCI6MjE3Ni40MjkzODcwMTkyMzEsInkiOjExNTZ9XQ==" marker-end="url(#mermaid-1789857999373_flowchart-v2-pointEnd)"></path><path d="M1652.613,175.879L1686.871,188.232C1721.129,200.586,1789.645,225.293,1823.902,246.313C1858.16,267.333,1858.16,284.667,1858.16,302C1858.16,319.333,1858.16,336.667,1858.16,348.833C1858.16,361,1858.16,368,1858.16,371.5L1858.16,375" id="L_PO_SECN_0" class=" edge-thickness-normal edge-pattern-dotted edge-thickness-normal edge-pattern-solid flowchart-link" style=";" data-edge="true" data-et="edge" data-id="L_PO_SECN_0" data-points="W3sieCI6MTY1Mi42MTMyODEyNSwieSI6MTc1Ljg3ODY5NjE1ODMyMzYzfSx7IngiOjE4NTguMTYwMTU2MjUsInkiOjI1MH0seyJ4IjoxODU4LjE2MDE1NjI1LCJ5IjozMDJ9LHsieCI6MTg1OC4xNjAxNTYyNSwieSI6MzU0fSx7IngiOjE4NTguMTYwMTU2MjUsInkiOjM3OX1d" marker-end="url(#mermaid-1789857999373_flowchart-v2-pointEnd)"></path></g><g class="edgeLabels"><g class="edgeLabel" transform="translate(918.875, 302)"><g class="label" data-id="L_PO_EM_0" transform="translate(-90.546875, -27)"><foreignObject width="181.09375" height="74"><div xmlns="http://www.w3.org/1999/xhtml" class="labelBkg" style="display: table-cell; white-space: nowrap; line-height: 1.5; max-width: 200px; text-align: center;"><span class="edgeLabel "><p>intake Q&amp;A, injections,<br>ceiling changes</p></span></div></foreignObject></g></g><g class="edgeLabel" transform="translate(502.25, 302)"><g class="label" data-id="L_EM_PO_0" transform="translate(-86.5546875, -27)"><foreignObject width="173.109375" height="74"><div xmlns="http://www.w3.org/1999/xhtml" class="labelBkg" style="display: table-cell; white-space: nowrap; line-height: 1.5; max-width: 200px; text-align: center;"><span class="edgeLabel "><p>human_required asks<br>(waiting tab)</p></span></div></foreignObject></g></g><g class="edgeLabel" transform="translate(480.80078125, 836.5)"><g class="label" data-id="L_EM_SA_0" transform="translate(-51.03125, -13.5)"><foreignObject width="102.0625" height="47"><div xmlns="http://www.w3.org/1999/xhtml" class="labelBkg" style="display: table-cell; white-space: nowrap; line-height: 1.5; max-width: 200px; text-align: center;"><span class="edgeLabel "><p>design briefs</p></span></div></foreignObject></g></g><g class="edgeLabel" transform="translate(2645.68359375, 1452)"><g class="label" data-id="L_SA_BOARD_0" transform="translate(-56.2734375, -27)"><foreignObject width="112.546875" height="74"><div xmlns="http://www.w3.org/1999/xhtml" class="labelBkg" style="display: table-cell; white-space: nowrap; line-height: 1.5; max-width: 200px; text-align: center;"><span class="edgeLabel "><p>arcs + stories,<br>criteria citable</p></span></div></foreignObject></g></g><g class="edgeLabel" transform="translate(1167.01953125, 623)"><g class="label" data-id="L_EM_DEV_0" transform="translate(-100, -27)"><foreignObject width="200" height="74"><div xmlns="http://www.w3.org/1999/xhtml" class="labelBkg" style="display: table; white-space: break-spaces; line-height: 1.5; max-width: 200px; text-align: center; width: 200px;"><span class="edgeLabel "><p>dispatch from the backlog</p></span></div></foreignObject></g></g><g class="edgeLabel" transform="translate(969.96484375, 623)"><g class="label" data-id="L_DEV_EM_0" transform="translate(-77.0546875, -13.5)"><foreignObject width="154.109375" height="47"><div xmlns="http://www.w3.org/1999/xhtml" class="labelBkg" style="display: table-cell; white-space: nowrap; line-height: 1.5; max-width: 200px; text-align: center;"><span class="edgeLabel "><p>questions / findings</p></span></div></foreignObject></g></g><g class="edgeLabel" transform="translate(1353.56640625, 623)"><g class="label" data-id="L_EM_BA_0" transform="translate(-66.546875, -13.5)"><foreignObject width="133.09375" height="47"><div xmlns="http://www.w3.org/1999/xhtml" class="labelBkg" style="display: table-cell; white-space: nowrap; line-height: 1.5; max-width: 200px; text-align: center;"><span class="edgeLabel "><p>routed questions</p></span></div></foreignObject></g></g><g class="edgeLabel" transform="translate(2573.18359375, 1050)"><g class="label" data-id="L_BA_SA_0" transform="translate(-77.3046875, -13.5)"><foreignObject width="154.609375" height="47"><div xmlns="http://www.w3.org/1999/xhtml" class="labelBkg" style="display: table-cell; white-space: nowrap; line-height: 1.5; max-width: 200px; text-align: center;"><span class="edgeLabel "><p>findings + evidence</p></span></div></foreignObject></g></g><g class="edgeLabel" transform="translate(2505.66015625, 1452)"><g class="label" data-id="L_SA_BOARD_2" transform="translate(-58.7734375, -13.5)"><foreignObject width="117.546875" height="47"><div xmlns="http://www.w3.org/1999/xhtml" class="labelBkg" style="display: table-cell; white-space: nowrap; line-height: 1.5; max-width: 200px; text-align: center;"><span class="edgeLabel "><p>rulings -&gt; DEC</p></span></div></foreignObject></g></g><g class="edgeLabel" transform="translate(2568.16015625, 302)"><g class="label" data-id="L_GOV_EM_0" transform="translate(-59.5390625, -13.5)"><foreignObject width="119.078125" height="47"><div xmlns="http://www.w3.org/1999/xhtml" class="labelBkg" style="display: table-cell; white-space: nowrap; line-height: 1.5; max-width: 200px; text-align: center;"><span class="edgeLabel "><p>contested calls</p></span></div></foreignObject></g></g><g class="edgeLabel" transform="translate(796.85546875, 623)"><g class="label" data-id="L_EM_WARD_0" transform="translate(-76.0546875, -27)"><foreignObject width="152.109375" height="74"><div xmlns="http://www.w3.org/1999/xhtml" class="labelBkg" style="display: table-cell; white-space: nowrap; line-height: 1.5; max-width: 200px; text-align: center;"><span class="edgeLabel "><p>in-scope designs +<br>declared data uses</p></span></div></foreignObject></g></g><g class="edgeLabel" transform="translate(600.80078125, 623)"><g class="label" data-id="L_WARD_EM_0" transform="translate(-100, -27)"><foreignObject width="200" height="74"><div xmlns="http://www.w3.org/1999/xhtml" class="labelBkg" style="display: table; white-space: break-spaces; line-height: 1.5; max-width: 200px; text-align: center; width: 200px;"><span class="edgeLabel "><p>sign-off / verdicts / blocks</p></span></div></foreignObject></g></g><g class="edgeLabel" transform="translate(1625.11328125, 475)"><g class="label" data-id="L_WARD_PO_0" transform="translate(-68.046875, -27)"><foreignObject width="136.09375" height="74"><div xmlns="http://www.w3.org/1999/xhtml" class="labelBkg" style="display: table-cell; white-space: nowrap; line-height: 1.5; max-width: 200px; text-align: center;"><span class="edgeLabel "><p>grants routed up,<br>never issued</p></span></div></foreignObject></g></g><g class="edgeLabel"><g class="label" data-id="L_DEV_REL_0" transform="translate(0, 0)"><foreignObject width="0" height="20"><div xmlns="http://www.w3.org/1999/xhtml" class="labelBkg" style="display: table-cell; white-space: nowrap; line-height: 1.5; max-width: 200px; text-align: center;"><span class="edgeLabel "></span></div></foreignObject></g></g><g class="edgeLabel" transform="translate(2208.16015625, 1452)"><g class="label" data-id="L_REL_QA_0" transform="translate(-33.015625, -13.5)"><foreignObject width="66.03125" height="47"><div xmlns="http://www.w3.org/1999/xhtml" class="labelBkg" style="display: table-cell; white-space: nowrap; line-height: 1.5; max-width: 200px; text-align: center;"><span class="edgeLabel "><p>draft PR</p></span></div></foreignObject></g></g><g class="edgeLabel" transform="translate(238.68359375, 1050)"><g class="label" data-id="L_QA_EM_0" transform="translate(-57.5390625, -13.5)"><foreignObject width="115.078125" height="47"><div xmlns="http://www.w3.org/1999/xhtml" class="labelBkg" style="display: table-cell; white-space: nowrap; line-height: 1.5; max-width: 200px; text-align: center;"><span class="edgeLabel "><p>pass / findings</p></span></div></foreignObject></g></g><g class="edgeLabel" transform="translate(388.51171875, 1050)"><g class="label" data-id="L_EM_BOARD_0" transform="translate(-72.2890625, -27)"><foreignObject width="144.578125" height="74"><div xmlns="http://www.w3.org/1999/xhtml" class="labelBkg" style="display: table-cell; white-space: nowrap; line-height: 1.5; max-width: 200px; text-align: center;"><span class="edgeLabel "><p>merge + flip ready<br>(alone)</p></span></div></foreignObject></g></g><g class="edgeLabel" transform="translate(139.89453125, 1238.5)"><g class="label" data-id="L_PMO_EM_0" transform="translate(-78.7890625, -27)"><foreignObject width="157.578125" height="74"><div xmlns="http://www.w3.org/1999/xhtml" class="labelBkg" style="display: table-cell; white-space: nowrap; line-height: 1.5; max-width: 200px; text-align: center;"><span class="edgeLabel "><p>metrics + rebalance<br>recommendations</p></span></div></foreignObject></g></g><g class="edgeLabel" transform="translate(1446.99058, 1797.31523)"><g class="label" data-id="L_BOARD_PMO_0" transform="translate(-70.5390625, -13.5)"><foreignObject width="141.078125" height="47"><div xmlns="http://www.w3.org/1999/xhtml" class="labelBkg" style="display: table-cell; white-space: nowrap; line-height: 1.5; max-width: 200px; text-align: center;"><span class="edgeLabel "><p>measured signals</p></span></div></foreignObject></g></g><g class="edgeLabel"><g class="label" data-id="L_SECN_QA_0" transform="translate(0, 0)"><foreignObject width="0" height="20"><div xmlns="http://www.w3.org/1999/xhtml" class="labelBkg" style="display: table-cell; white-space: nowrap; line-height: 1.5; max-width: 200px; text-align: center;"><span class="edgeLabel "></span></div></foreignObject></g></g><g class="edgeLabel"><g class="label" data-id="L_SECN_BA_0" transform="translate(0, 0)"><foreignObject width="0" height="20"><div xmlns="http://www.w3.org/1999/xhtml" class="labelBkg" style="display: table-cell; white-space: nowrap; line-height: 1.5; max-width: 200px; text-align: center;"><span class="edgeLabel "></span></div></foreignObject></g></g><g class="edgeLabel"><g class="label" data-id="L_SECN_REL_0" transform="translate(0, 0)"><foreignObject width="0" height="20"><div xmlns="http://www.w3.org/1999/xhtml" class="labelBkg" style="display: table-cell; white-space: nowrap; line-height: 1.5; max-width: 200px; text-align: center;"><span class="edgeLabel "></span></div></foreignObject></g></g><g class="edgeLabel" transform="translate(1858.16015625, 302)"><g class="label" data-id="L_PO_SECN_0" transform="translate(-78.5390625, -27)"><foreignObject width="157.078125" height="74"><div xmlns="http://www.w3.org/1999/xhtml" class="labelBkg" style="display: table-cell; white-space: nowrap; line-height: 1.5; max-width: 200px; text-align: center;"><span class="edgeLabel "><p>security escalations<br>bypass the ladder</p></span></div></foreignObject></g></g></g><g class="nodes"><g class="node default  " id="flowchart-PO-0" transform="translate(1522.61328125, 129)"><rect class="basic label-container" style="" x="-130" y="-82.5" width="260" height="165"></rect><g class="label" style="" transform="translate(-100, -67.5)"><rect></rect><foreignObject width="200" height="155"><div xmlns="http://www.w3.org/1999/xhtml" style="display: table; white-space: break-spaces; line-height: 1.5; max-width: 200px; text-align: center; width: 200px;"><span class="nodeLabel "><p>Sets effort variables + product definition (Q&amp;A)<br>Answers the human queue - owns ceilings, scope, policy</p></span></div></foreignObject></g></g><g class="node default  " id="flowchart-EM-1" transform="translate(600.80078125, 475)"><rect class="basic label-container" style="" x="-130" y="-96" width="260" height="192"></rect><g class="label" style="" transform="translate(-100, -81)"><rect></rect><foreignObject width="200" height="182"><div xmlns="http://www.w3.org/1999/xhtml" style="display: table; white-space: break-spaces; line-height: 1.5; max-width: 200px; text-align: center; width: 200px;"><span class="nodeLabel "><p>Engineering Manager / Delivery Lead<br>= <b>Maestro</b> (the session)<br>dispatch - capacity - merge authority - process</p></span></div></foreignObject></g></g><g class="node default  " id="flowchart-PMO-2" transform="translate(185.1640625, 1986.5)"><rect class="basic label-container" style="" x="-130" y="-136.5" width="260" height="273"></rect><g class="label" style="" transform="translate(-100, -121.5)"><rect></rect><foreignObject width="200" height="263"><div xmlns="http://www.w3.org/1999/xhtml" style="display: table; white-space: break-spaces; line-height: 1.5; max-width: 200px; text-align: center; width: 200px;"><span class="nodeLabel "><p>Program / PMO Analyst + Metrics<br>= <b>Foreman</b> + Courier + the Wall<br>status - integrity - throughput/cost metrics -<br>capacity recommendations - reporting</p></span></div></foreignObject></g></g><g class="node default  " id="flowchart-SA-3" transform="translate(2573.18359375, 1238.5)"><rect class="basic label-container" style="" x="-130" y="-136.5" width="260" height="273"></rect><g class="label" style="" transform="translate(-100, -121.5)"><rect></rect><foreignObject width="200" height="263"><div xmlns="http://www.w3.org/1999/xhtml" style="display: table; white-space: break-spaces; line-height: 1.5; max-width: 200px; text-align: center; width: 200px;"><span class="nodeLabel "><p>Solution / Enterprise Architect<br>= <b>Architect</b><br>domain design - requirements sign-off - rulings -<br>arcs and stories authored from the design</p></span></div></foreignObject></g></g><g class="node default  " id="flowchart-GOV-4" transform="translate(2568.16015625, 129)"><rect class="basic label-container" style="" x="-130" y="-96" width="260" height="192"></rect><g class="label" style="" transform="translate(-100, -81)"><rect></rect><foreignObject width="200" height="182"><div xmlns="http://www.w3.org/1999/xhtml" style="display: table; white-space: break-spaces; line-height: 1.5; max-width: 200px; text-align: center; width: 200px;"><span class="nodeLabel "><p>Governance / Standards Board<br>= <b>Adjudicator</b><br>tie-breaks - decision conflicts - trade-off rulings</p></span></div></foreignObject></g></g><g class="node default  " id="flowchart-BA-5" transform="translate(2923.18359375, 836.5)"><rect class="basic label-container" style="" x="-130" y="-123" width="260" height="246"></rect><g class="label" style="" transform="translate(-100, -108)"><rect></rect><foreignObject width="200" height="236"><div xmlns="http://www.w3.org/1999/xhtml" style="display: table; white-space: break-spaces; line-height: 1.5; max-width: 200px; text-align: center; width: 200px;"><span class="nodeLabel "><p>Business / Technical Analysts<br>= <b>Researchers</b> (N, parallel)<br>investigation - evidence with sources -<br>options with costs - never code</p></span></div></foreignObject></g></g><g class="node default  " id="flowchart-DEV-6" transform="translate(2218.16015625, 836.5)"><rect class="basic label-container" style="" x="-130" y="-96" width="260" height="192"></rect><g class="label" style="" transform="translate(-100, -81)"><rect></rect><foreignObject width="200" height="182"><div xmlns="http://www.w3.org/1999/xhtml" style="display: table; white-space: break-spaces; line-height: 1.5; max-width: 200px; text-align: center; width: 200px;"><span class="nodeLabel "><p>Engineers<br>= <b>Builders</b> (N, parallel, leased scopes)<br>implementation + owed tests + mutation evidence</p></span></div></foreignObject></g></g><g class="node default  " id="flowchart-REL-7" transform="translate(2208.16015625, 1238.5)"><rect class="basic label-container" style="" x="-130" y="-82.5" width="260" height="165"></rect><g class="label" style="" transform="translate(-100, -67.5)"><rect></rect><foreignObject width="200" height="155"><div xmlns="http://www.w3.org/1999/xhtml" style="display: table; white-space: break-spaces; line-height: 1.5; max-width: 200px; text-align: center; width: 200px;"><span class="nodeLabel "><p>Release Engineer<br>= <b>Integrator</b> (hat)<br>rebase - safety proof - gates LAST - one PR at a time</p></span></div></foreignObject></g></g><g class="node default  " id="flowchart-QA-8" transform="translate(1945.79296875, 1638.5)"><rect class="basic label-container" style="" x="-130" y="-96" width="260" height="192"></rect><g class="label" style="" transform="translate(-100, -81)"><rect></rect><foreignObject width="200" height="182"><div xmlns="http://www.w3.org/1999/xhtml" style="display: table; white-space: break-spaces; line-height: 1.5; max-width: 200px; text-align: center; width: 200px;"><span class="nodeLabel "><p>QA / Code Review<br>= <b>Reviewer</b> (cold read) + external lanes +<br>testing standards + mutation protocol + DoD gate</p></span></div></foreignObject></g></g><g class="node default  " id="flowchart-WARD-9" transform="translate(1639.13671875, 836.5)"><rect class="basic label-container" style="" x="-130" y="-136.5" width="260" height="273"></rect><g class="label" style="" transform="translate(-100, -121.5)"><rect></rect><foreignObject width="200" height="263"><div xmlns="http://www.w3.org/1999/xhtml" style="display: table; white-space: break-spaces; line-height: 1.5; max-width: 200px; text-align: center; width: 200px;"><span class="nodeLabel "><p>Security/Compliance Authority<br>= <b>Warden</b> (exactly one)<br>guardrail corpus - architecture sign-off -<br>data-use verdicts - delivery audit<br><i>blocks autonomously, never grants</i></p></span></div></foreignObject></g></g><g class="node default  " id="flowchart-SECN-10" transform="translate(1858.16015625, 475)"><rect class="basic label-container" style="" x="-130" y="-96" width="260" height="192"></rect><g class="label" style="" transform="translate(-100, -81)"><rect></rect><foreignObject width="200" height="182"><div xmlns="http://www.w3.org/1999/xhtml" style="display: table; white-space: break-spaces; line-height: 1.5; max-width: 200px; text-align: center; width: 200px;"><span class="nodeLabel "><p>The cross-cutting lane:<br>SAST + secrets - network-gated research -<br>localhost-only surfaces - consent-gated installs</p></span></div></foreignObject></g></g><g class="node default  " id="flowchart-BOARD-11" transform="translate(2573.18359375, 1638.5)"><rect class="basic label-container" style="" x="-130" y="-109.5" width="260" height="219"></rect><g class="label" style="" transform="translate(-100, -94.5)"><rect></rect><foreignObject width="200" height="209"><div xmlns="http://www.w3.org/1999/xhtml" style="display: table; white-space: break-spaces; line-height: 1.5; max-width: 200px; text-align: center; width: 200px;"><span class="nodeLabel "><p>Backlog + board = arcs / stories / bugs on the Wall<br>SLA ladder - escalation - grooming by integrity sweep -<br>decision log DEC-NNNN</p></span></div></foreignObject></g></g></g></g></g></svg>